<svg xmlns="http://www.w3.org/2000/svg" xmlns:xlink="http://www.w3.org/1999/xlink" width="60" height="60" viewBox="0 0 60 60">
  <defs>
    <linearGradient id="icon60x-b" x1="50%" x2="50%" y1="106.001%" y2="-7.816%">
      <stop offset="0%" stop-color="#890756"/>
      <stop offset="52.121%" stop-color="#B14039"/>
      <stop offset="100%" stop-color="#FFAE00"/>
    </linearGradient>
    <circle id="icon60x-a" cx="30" cy="30" r="30"/>
    <circle id="icon60x-c" cx="30" cy="30" r="30"/>
    <linearGradient id="icon60x-e" x1="50%" x2="50%" y1="106.001%" y2="-7.816%">
      <stop offset="0%" stop-color="#890756"/>
      <stop offset="52.121%" stop-color="#B14039"/>
      <stop offset="96.7%" stop-color="#FFAE00"/>
    </linearGradient>
  </defs>
  <g fill="none" fill-rule="evenodd">
    <use fill="url(#icon60x-b)" xlink:href="#icon60x-a"/>
    <mask id="icon60x-d" fill="#fff">
      <use xlink:href="#icon60x-c"/>
    </mask>
    <use fill="#000" fill-opacity=".106" xlink:href="#icon60x-c"/>
    <path fill="#000" fill-opacity=".141" d="M30,105.9 C53.1959595,105.9 72,87.0959595 72,63.9 C72,56.6490512 73.8151024,32.1322196 66.2943782,27.4314804 C64.9865104,26.6140132 60.4898739,24.4492363 57.70433,25.765965 C54.918786,27.0826936 54.3058656,22.4030131 53.2629908,22.4030131 C52.220116,22.4030131 50.7881306,25.9031221 47.8679012,23.1473101 C44.9476718,20.3914981 32.4255583,30 30,30 C26.6301797,30 14.456533,19.2651114 9.73596797,24.5622144 C6.28270926,28.4372309 5.80349318,18.5201033 -0.435131595,25.765965 C-6.67375637,33.0118266 -12,51.187512 -12,63.9 C-12,87.0959595 6.80404051,105.9 30,105.9 Z" mask="url(#icon60x-d)"/>
    <path fill="#000" fill-opacity=".18" d="M28.3545758,105.98145 C44.9231183,105.98145 58.3545758,92.5499927 58.3545758,75.9814502 C58.3545758,65.1665794 64.6290949,41.8947424 53.9949386,41.8947424 C50.9772223,41.8947424 51.3202112,43.1504249 48.290451,43.5337933 C45.7898467,43.8502054 41.7351766,41.8276402 39.0515582,41.8947424 C34.4530246,42.0097258 30.8663777,45.9814502 28.3545758,45.9814502 C27.0269757,45.9814502 16.5751431,28.9645014 15.0620895,35.9584925 C13.9923886,40.9031147 13.1358426,42.3221941 12.6346948,42.7143048 C11.4682833,43.6269347 11.473508,39.4010738 10.6281083,39.2531157 C9.78270852,39.1051577 8.66279562,44.4657787 4.74164654,40.3435464 C2.87700778,38.3832858 -3.4671999,38.1707172 -7.13368413,40.3435464 C-15.3956912,45.2397712 -1.64542416,65.268536 -1.64542416,75.9814502 C-1.64542416,92.5499927 11.7860334,105.98145 28.3545758,105.98145 Z" mask="url(#icon60x-d)"/>
    <path fill="url(#icon60x-e)" stroke="#FFF" stroke-width="3.516" d="M30.1005587,49.1639045 C40.8687549,49.2311454 44.0136078,40.5804216 44.0136078,29.9921589 C44.0136078,19.4038962 38.093765,10.8545194 30.1005587,10.8204134 C22.1073525,10.7863074 16.015625,19.4038962 16.015625,29.9921589 C16.015625,40.5804216 19.3323625,49.0966635 30.1005587,49.1639045 Z" mask="url(#icon60x-d)"/>
    <circle cx="29.994" cy="18.509" r="3.9" fill="#FFF" mask="url(#icon60x-d)"/>
    <path fill="#FFF" fill-rule="nonzero" d="M29.98125,45.9 C25.5905862,45.9 22.03125,42.3406638 22.03125,37.95 C22.03125,33.5593362 25.5905862,30 29.98125,30 C34.3719138,30 37.93125,33.5593362 37.93125,37.95 C37.93125,42.3406638 34.3719138,45.9 29.98125,45.9 Z M29.98125,42.6036585 C32.5513946,42.6036585 34.6349085,40.5201446 34.6349085,37.95 C34.6349085,35.3798554 32.5513946,33.2963415 29.98125,33.2963415 C27.4111054,33.2963415 25.3275915,35.3798554 25.3275915,37.95 C25.3275915,40.5201446 27.4111054,42.6036585 29.98125,42.6036585 Z" mask="url(#icon60x-d)"/>
  </g>
</svg>
