<svg xmlns="http://www.w3.org/2000/svg" xmlns:xlink="http://www.w3.org/1999/xlink" width="40" height="40" viewBox="0 0 40 40">
  <defs>
    <linearGradient id="icon-b" x1="50%" x2="50%" y1="106.001%" y2="-7.816%">
      <stop offset="0%" stop-color="#890756"/>
      <stop offset="52.121%" stop-color="#B14039"/>
      <stop offset="100%" stop-color="#FFAE00"/>
    </linearGradient>
    <circle id="icon-a" cx="20" cy="20" r="20"/>
    <circle id="icon-c" cx="20" cy="20" r="20"/>
    <linearGradient id="icon-e" x1="50%" x2="50%" y1="106.001%" y2="-7.816%">
      <stop offset="0%" stop-color="#890756"/>
      <stop offset="52.121%" stop-color="#B14039"/>
      <stop offset="96.7%" stop-color="#FFAE00"/>
    </linearGradient>
  </defs>
  <g fill="none" fill-rule="evenodd">
    <use fill="url(#icon-b)" xlink:href="#icon-a"/>
    <mask id="icon-d" fill="#fff">
      <use xlink:href="#icon-c"/>
    </mask>
    <use fill="#000" fill-opacity=".106" xlink:href="#icon-c"/>
    <path fill="#000" fill-opacity=".141" d="M20,70.6 C35.463973,70.6 48,58.063973 48,42.6 C48,37.7660341 49.2100683,21.4214797 44.1962521,18.2876536 C43.3243403,17.7426755 40.3265826,16.2994909 38.4695533,17.17731 C36.612524,18.0551291 36.2039104,14.9353421 35.5086605,14.9353421 C34.8134107,14.9353421 33.8587537,17.268748 31.9119341,15.4315401 C29.9651145,13.5943321 21.6170389,20 20,20 C17.7534531,20 9.63768865,12.8434076 6.49064531,16.3748096 C4.18847284,18.9581539 3.86899545,12.3467356 -0.29008773,17.17731 C-4.44917091,22.0078844 -8,34.125008 -8,42.6 C-8,58.063973 4.53602701,70.6 20,70.6 Z" mask="url(#icon-d)"/>
    <path fill="#000" fill-opacity=".18" d="M18.9030506,70.6543001 C29.9487456,70.6543001 38.9030506,61.6999951 38.9030506,50.6543001 C38.9030506,43.4443863 43.0860633,27.9298282 35.9966258,27.9298282 C33.9848149,27.9298282 34.2134741,28.7669499 32.193634,29.0225289 C30.5265644,29.2334703 27.8234511,27.8850935 26.0343721,27.9298282 C22.9686831,28.0064839 20.5775851,30.6543001 18.9030506,30.6543001 C18.0179838,30.6543001 11.0500954,19.3096676 10.041393,23.9723283 C9.32825906,27.2687432 8.75722838,28.2147961 8.42312987,28.4762032 C7.64552218,29.0846231 7.64900534,26.2673825 7.08540551,26.1687438 C6.52180568,26.0701051 5.77519708,29.6438525 3.1610977,26.8956976 C1.91800519,25.5888572 -2.3114666,25.4471448 -4.75578942,26.8956976 C-10.2637942,30.1598475 -1.09694944,43.5123573 -1.09694944,50.6543001 C-1.09694944,61.6999951 7.85735557,70.6543001 18.9030506,70.6543001 Z" mask="url(#icon-d)"/>
    <path fill="url(#icon-e)" stroke="#FFF" stroke-width="2.344" d="M20.0670392,32.7759363 C27.2458366,32.8207636 29.3424052,27.0536144 29.3424052,19.9947726 C29.3424052,12.9359308 25.3958433,7.23634628 20.0670392,7.21360893 C14.738235,7.19087157 10.6770833,12.9359308 10.6770833,19.9947726 C10.6770833,27.0536144 12.8882417,32.731109 20.0670392,32.7759363 Z" mask="url(#icon-d)"/>
    <circle cx="19.996" cy="12.34" r="2.6" fill="#FFF" mask="url(#icon-d)"/>
    <path fill="#FFF" fill-rule="nonzero" d="M19.9875,30.6 C17.0603908,30.6 14.6875,28.2271092 14.6875,25.3 C14.6875,22.3728908 17.0603908,20 19.9875,20 C22.9146092,20 25.2875,22.3728908 25.2875,25.3 C25.2875,28.2271092 22.9146092,30.6 19.9875,30.6 Z M19.9875,28.402439 C21.7009297,28.402439 23.089939,27.0134297 23.089939,25.3 C23.089939,23.5865703 21.7009297,22.197561 19.9875,22.197561 C18.2740703,22.197561 16.885061,23.5865703 16.885061,25.3 C16.885061,27.0134297 18.2740703,28.402439 19.9875,28.402439 Z" mask="url(#icon-d)"/>
  </g>
</svg>
