<svg xmlns="http://www.w3.org/2000/svg" xmlns:xlink="http://www.w3.org/1999/xlink" width="29" height="29" viewBox="0 0 29 29">
  <defs>
    <linearGradient id="icon29x-b" x1="50%" x2="50%" y1="106.001%" y2="-7.816%">
      <stop offset="0%" stop-color="#890756"/>
      <stop offset="52.121%" stop-color="#B14039"/>
      <stop offset="100%" stop-color="#FFAE00"/>
    </linearGradient>
    <circle id="icon29x-a" cx="14.5" cy="14.5" r="14.5"/>
    <circle id="icon29x-c" cx="14.5" cy="14.5" r="14.5"/>
    <linearGradient id="icon29x-e" x1="50%" x2="50%" y1="106.001%" y2="-7.816%">
      <stop offset="0%" stop-color="#890756"/>
      <stop offset="52.121%" stop-color="#B14039"/>
      <stop offset="96.7%" stop-color="#FFAE00"/>
    </linearGradient>
  </defs>
  <g fill="none" fill-rule="evenodd">
    <use fill="url(#icon29x-b)" xlink:href="#icon29x-a"/>
    <mask id="icon29x-d" fill="#fff">
      <use xlink:href="#icon29x-c"/>
    </mask>
    <use fill="#000" fill-opacity=".106" xlink:href="#icon29x-c"/>
    <path fill="#000" fill-opacity=".141" d="M14.5,51.185 C25.7113804,51.185 34.8,42.0963804 34.8,30.885 C34.8,27.3803747 35.6772995,15.5305728 32.0422828,13.2585489 C31.4101467,12.8634397 29.2367724,11.8171309 27.8904261,12.4535497 C26.5440799,13.0899686 26.2478351,10.828123 25.7437789,10.828123 C25.2397227,10.828123 24.5475965,12.5198423 23.1361523,11.1878665 C21.724708,9.85589074 15.6723532,14.5 14.5,14.5 C12.8712535,14.5 6.98732427,9.31147049 4.70571785,11.871737 C3.03664281,13.7446616 2.8050217,8.95138328 -0.210313604,12.4535497 C-3.22564891,15.9557162 -5.8,24.7406308 -5.8,30.885 C-5.8,42.0963804 3.28861958,51.185 14.5,51.185 Z" mask="url(#icon29x-d)"/>
    <path fill="#000" fill-opacity=".18" d="M13.7047117,51.2243676 C21.7128405,51.2243676 28.2047117,44.7324965 28.2047117,36.7243676 C28.2047117,31.49718 31.2373959,20.2491255 26.0975537,20.2491255 C24.6389908,20.2491255 24.8047688,20.8560387 23.3403846,21.0413334 C22.1317592,21.194266 20.172002,20.2166928 18.8749198,20.2491255 C16.6522952,20.3047008 14.9187492,22.2243676 13.7047117,22.2243676 C13.0630383,22.2243676 8.01131915,13.999509 7.28000991,17.379938 C6.76298782,19.7698388 6.34899058,20.4557271 6.10676916,20.6452473 C5.54300358,21.0863518 5.54552887,19.0438523 5.13691899,18.9723393 C4.72830912,18.9008262 4.18701788,21.4917931 2.29179583,19.4993808 C1.39055376,18.5519215 -1.67581328,18.44918 -3.44794733,19.4993808 C-7.44125076,21.8658894 -0.795288342,31.5464591 -0.795288342,36.7243676 C-0.795288342,44.7324965 5.69658279,51.2243676 13.7047117,51.2243676 Z" mask="url(#icon29x-d)"/>
    <path fill="url(#icon29x-e)" stroke="#FFF" stroke-width="1.699" d="M14.5486034,23.7625538 C19.7532316,23.7950536 21.2732438,19.6138704 21.2732438,14.4962101 C21.2732438,9.37854985 18.4119864,5.24635105 14.5486034,5.22986647 C10.6852204,5.21338189 7.74088542,9.37854985 7.74088542,14.4962101 C7.74088542,19.6138704 9.34397522,23.730054 14.5486034,23.7625538 Z" mask="url(#icon29x-d)"/>
    <circle cx="14.497" cy="8.946" r="1.885" fill="#FFF" mask="url(#icon29x-d)"/>
    <path fill="#FFF" fill-rule="nonzero" d="M14.4909375,22.185 C12.3687833,22.185 10.6484375,20.4646542 10.6484375,18.3425 C10.6484375,16.2203458 12.3687833,14.5 14.4909375,14.5 C16.6130917,14.5 18.3334375,16.2203458 18.3334375,18.3425 C18.3334375,20.4646542 16.6130917,22.185 14.4909375,22.185 Z M14.4909375,20.5917683 C15.7331741,20.5917683 16.7402058,19.5847366 16.7402058,18.3425 C16.7402058,17.1002634 15.7331741,16.0932317 14.4909375,16.0932317 C13.2487009,16.0932317 12.2416692,17.1002634 12.2416692,18.3425 C12.2416692,19.5847366 13.2487009,20.5917683 14.4909375,20.5917683 Z" mask="url(#icon29x-d)"/>
  </g>
</svg>
