<svg xmlns="http://www.w3.org/2000/svg" xmlns:xlink="http://www.w3.org/1999/xlink" width="76" height="76" viewBox="0 0 76 76">
  <defs>
    <linearGradient id="icon76x-b" x1="50%" x2="50%" y1="106.001%" y2="-7.816%">
      <stop offset="0%" stop-color="#890756"/>
      <stop offset="52.121%" stop-color="#B14039"/>
      <stop offset="100%" stop-color="#FFAE00"/>
    </linearGradient>
    <circle id="icon76x-a" cx="38" cy="38" r="38"/>
    <circle id="icon76x-c" cx="38" cy="38" r="38"/>
    <linearGradient id="icon76x-e" x1="50%" x2="50%" y1="106.001%" y2="-7.816%">
      <stop offset="0%" stop-color="#890756"/>
      <stop offset="52.121%" stop-color="#B14039"/>
      <stop offset="96.7%" stop-color="#FFAE00"/>
    </linearGradient>
  </defs>
  <g fill="none" fill-rule="evenodd">
    <use fill="url(#icon76x-b)" xlink:href="#icon76x-a"/>
    <mask id="icon76x-d" fill="#fff">
      <use xlink:href="#icon76x-c"/>
    </mask>
    <use fill="#000" fill-opacity=".106" xlink:href="#icon76x-c"/>
    <path fill="#000" fill-opacity=".141" d="M38,134.14 C67.3815487,134.14 91.2,110.321549 91.2,80.94 C91.2,71.7554648 93.4991297,40.7008115 83.972879,34.7465418 C82.3162466,33.7110834 76.6205069,30.9690327 73.0921513,32.636889 C69.5637956,34.3047453 68.7874298,28.37715 67.466455,28.37715 C66.1454803,28.37715 64.3316321,32.8106213 60.6326749,29.3199261 C56.9337176,25.8292309 41.0723739,38 38,38 C33.731561,38 18.3116084,24.4024744 12.3322261,31.1121382 C7.9580984,36.0204925 7.35109136,23.4587976 -0.551166687,32.636889 C-8.45342474,41.8149804 -15.2,64.8375152 -15.2,80.94 C-15.2,110.321549 8.61845131,134.14 38,134.14 Z" mask="url(#icon76x-d)"/>
    <path fill="#000" fill-opacity=".18" d="M35.9157961,134.24317 C56.9026166,134.24317 73.9157961,117.229991 73.9157961,96.2431703 C73.9157961,82.5443339 81.8635202,53.0666737 68.3935889,53.0666737 C64.5711483,53.0666737 65.0056009,54.6572049 61.1679046,55.1428049 C58.0004725,55.5435935 52.8645571,52.9816776 49.465307,53.0666737 C43.6404979,53.2123193 39.0974117,58.2431703 35.9157961,58.2431703 C34.2341692,58.2431703 20.9951812,36.6883684 19.0786467,45.5474238 C17.7236922,51.810612 16.6387339,53.6081125 16.0039468,54.1047861 C14.5264921,55.2607839 14.5331101,49.9080268 13.4622705,49.7206133 C12.3914308,49.5331998 10.9728744,56.3233197 6.00608562,51.1018255 C3.64420986,48.6188287 -4.39178654,48.3495751 -9.0359999,51.1018255 C-19.5012089,57.3037102 -2.08420393,82.6734789 -2.08420393,96.2431703 C-2.08420393,117.229991 14.9289756,134.24317 35.9157961,134.24317 Z" mask="url(#icon76x-d)"/>
    <path fill="url(#icon76x-e)" stroke="#FFF" stroke-width="4.453" d="M38.1273744,62.274279 C51.7670896,62.3594509 55.7505699,51.4018674 55.7505699,37.990068 C55.7505699,24.5782686 48.2521023,13.7490579 38.1273744,13.705857 C28.0026465,13.662656 20.2864583,24.5782686 20.2864583,37.990068 C20.2864583,51.4018674 24.4876592,62.1891071 38.1273744,62.274279 Z" mask="url(#icon76x-d)"/>
    <circle cx="37.992" cy="23.445" r="4.94" fill="#FFF" mask="url(#icon76x-d)"/>
    <path fill="#FFF" fill-rule="nonzero" d="M37.97625,58.14 C32.4147426,58.14 27.90625,53.6315074 27.90625,48.07 C27.90625,42.5084926 32.4147426,38 37.97625,38 C43.5377574,38 48.04625,42.5084926 48.04625,48.07 C48.04625,53.6315074 43.5377574,58.14 37.97625,58.14 Z M37.97625,53.9646341 C41.2317665,53.9646341 43.8708841,51.3255165 43.8708841,48.07 C43.8708841,44.8144835 41.2317665,42.1753659 37.97625,42.1753659 C34.7207335,42.1753659 32.0816159,44.8144835 32.0816159,48.07 C32.0816159,51.3255165 34.7207335,53.9646341 37.97625,53.9646341 Z" mask="url(#icon76x-d)"/>
  </g>
</svg>
